<svg xmlns="http://www.w3.org/2000/svg" width="24" height="24" viewBox="0 0 24 24">
    <g id="Union_2" data-name="Union 2" transform="translate(45 -50)" fill="#fff"
        stroke-linejoin="round">
        <path
            d="M -40.00382232666016 72.65605926513672 L -35.68335723876953 71.11053466796875 C -35.50062942504883 70.94490814208984 -35.26162338256836 70.85150146484375 -35.01180267333984 70.85150146484375 L -25.00020217895508 70.85150146484375 C -23.34621047973633 70.85150146484375 -22.00060081481934 69.50547790527344 -22.00060081481934 67.85099792480469 L -22.00060081481934 63.30780029296875 C -22.00060081481934 61.65380859375 -23.34621047973633 60.30820083618164 -25.00020217895508 60.30820083618164 L -27.56898307800293 60.30820083618164 C -28.87021636962891 61.70055770874023 -30.7159481048584 62.48979949951172 -32.70780181884766 62.48979949951172 C -34.69965744018555 62.48979949951172 -36.54538726806641 61.70055770874023 -37.84661865234375 60.30820083618164 L -41.00040054321289 60.30820083618164 C -42.65439224243164 60.30820083618164 -44 61.65380859375 -44 63.30780029296875 L -44 67.85099792480469 C -44 69.50547790527344 -42.65439224243164 70.85150146484375 -41.00040054321289 70.85150146484375 L -40.71150207519531 70.85150146484375 C -40.36166000366211 70.85150146484375 -40.03726196289062 71.03431701660156 -39.85607147216797 71.33358001708984 C -39.67488098144531 71.63285064697266 -39.66326141357422 72.00504302978516 -39.82542037963867 72.31501770019531 L -40.00382232666016 72.65605926513672 M -32.58629989624023 59.85979843139648 C -29.94376182556152 59.85979843139648 -27.79390144348145 57.87263870239258 -27.79390144348145 55.43009948730469 C -27.79390144348145 52.9875602722168 -29.94376182556152 51.00040054321289 -32.58629989624023 51.00040054321289 C -35.22933197021484 51.00040054321289 -37.37960052490234 52.9875602722168 -37.37960052490234 55.43009948730469 C -37.37960052490234 57.87263870239258 -35.22933197021484 59.85979843139648 -32.58629989624023 59.85979843139648 M -40.90140151977539 74.00070190429688 C -41.30730056762695 74.00070190429688 -41.6223030090332 73.59480285644531 -41.42430114746094 73.214111328125 L -40.71150207519531 71.85150146484375 L -41.00040054321289 71.85150146484375 C -43.20540237426758 71.85150146484375 -45 70.05690002441406 -45 67.85099792480469 L -45 63.30780029296875 C -45 61.10279846191406 -43.20540237426758 59.30820083618164 -41.00040054321289 59.30820083618164 L -37.39140319824219 59.30820083618164 C -36.27360153198242 60.69509887695312 -34.56630325317383 61.48979949951172 -32.70780181884766 61.48979949951172 C -30.84930229187012 61.48979949951172 -29.14200210571289 60.69509887695312 -28.02420043945312 59.30820083618164 L -25.00020217895508 59.30820083618164 C -22.79520225524902 59.30820083618164 -21.00060081481934 61.10279846191406 -21.00060081481934 63.30780029296875 L -21.00060081481934 67.85099792480469 C -21.00060081481934 70.05690002441406 -22.79520225524902 71.85150146484375 -25.00020217895508 71.85150146484375 L -35.01180267333984 71.85150146484375 C -35.07300186157227 71.92440032958984 -35.15670013427734 71.98470306396484 -35.26380157470703 72.02249908447266 L -40.68810272216797 73.96289825439453 C -40.76010131835938 73.98899841308594 -40.83209991455078 74.00070190429688 -40.90140151977539 74.00070190429688 Z M -32.58629989624023 60.85979843139648 C -35.78580093383789 60.85979843139648 -38.37960052490234 58.42889785766602 -38.37960052490234 55.43009948730469 C -38.37960052490234 52.43130111694336 -35.78580093383789 50.00040054321289 -32.58629989624023 50.00040054321289 C -29.38680076599121 50.00040054321289 -26.79390144348145 52.43130111694336 -26.79390144348145 55.43009948730469 C -26.79390144348145 58.42889785766602 -29.38680076599121 60.85979843139648 -32.58629989624023 60.85979843139648 Z"
            stroke="none" fill="#707070" />
    </g>
</svg>
